<svg xmlns="http://www.w3.org/2000/svg" width="125.106" height="125.181" viewBox="0 0 125.106 125.181">
  <g id="idea" transform="translate(-0.457)">
    <path id="Path_572" data-name="Path 572" d="M369.659,121.882a20.851,20.851,0,0,1-20.851,20.851,18.8,18.8,0,0,1-3.087-.25c-.02.021-.041.021-.083,0a20.85,20.85,0,0,1,0-41.2c.042-.021.062-.021.082,0a18.906,18.906,0,0,1,3.087-.25A20.851,20.851,0,0,1,369.659,121.882Zm0,0" transform="translate(-246.181 -75.933)" fill="#7fabfa"/>
    <path id="Path_573" data-name="Path 573" d="M201.581,33.725a24.975,24.975,0,0,1-9.4,19.558H160.943a24.975,24.975,0,0,1-9.4-19.558,26.065,26.065,0,0,1,.292-3.858,25.039,25.039,0,0,1,21.6-20.976A25.716,25.716,0,0,1,176.56,8.7a25.022,25.022,0,0,1,24.729,21.163,26.2,26.2,0,0,1,.292,3.858Zm0,0" transform="translate(-113.55 -6.541)" fill="#7fabfa"/>
    <path id="Path_574" data-name="Path 574" d="M363.4,122.591a20.85,20.85,0,0,1-17.682,20.6c-.02.021-.041.021-.082,0a20.85,20.85,0,0,1,0-41.2c.042-.021.062-.021.082,0a20.85,20.85,0,0,1,17.682,20.6Zm0,0" transform="translate(-246.181 -76.642)" fill="#e3e7f2"/>
    <path id="Path_575" data-name="Path 575" d="M195.325,34.291a24.971,24.971,0,0,1-9.4,19.558h-24.98a24.975,24.975,0,0,1-9.4-19.558,26.063,26.063,0,0,1,.292-3.858,25.039,25.039,0,0,1,21.6-20.976,25.041,25.041,0,0,1,21.6,20.976,26.061,26.061,0,0,1,.291,3.858Zm0,0" transform="translate(-113.55 -7.108)" fill="#e3e7f2"/>
    <path id="Path_576" data-name="Path 576" d="M50.553,121.882A20.851,20.851,0,1,1,29.7,101.031,20.85,20.85,0,0,1,50.553,121.882Zm0,0" transform="translate(-6.309 -75.933)" fill="#e3e7f2"/>
    <path id="Path_577" data-name="Path 577" d="M197.356,195.285a27.3,27.3,0,0,1-2.9,12.219c-3.524,6.963-11.51,12.656-11.7,21.143H157.74c-.188-8.487-8.174-14.179-11.7-21.143a27.117,27.117,0,0,1,21.081-39.137,25.726,25.726,0,0,1,3.128-.187,27.122,27.122,0,0,1,27.106,27.106Zm0,0" transform="translate(-107.24 -126.401)" fill="#7fabfa"/>
    <path id="Path_578" data-name="Path 578" d="M187.2,411.59H216.39a2.085,2.085,0,0,1,2.085,2.084v4.171a2.085,2.085,0,0,1-2.085,2.084H187.2a2.085,2.085,0,0,1-2.085-2.084v-4.171A2.085,2.085,0,0,1,187.2,411.59Zm0,0" transform="translate(-138.785 -309.344)" fill="#7fabfa"/>
    <path id="Path_579" data-name="Path 579" d="M235.368,445.16v8.34c0,2.294-3.962,4.171-6.255,4.171h-4.171a6.482,6.482,0,0,1-1.042-.1c-2.273-.438-5.213-2.084-5.213-4.066V445.16Zm0,0" transform="translate(-164.018 -334.574)" fill="#7fabfa"/>
    <path id="Path_580" data-name="Path 580" d="M191.1,195.852a27.288,27.288,0,0,1-2.9,12.219c-3.523,6.963-11.51,12.656-11.7,21.143H157.74c-.188-8.487-8.174-14.179-11.7-21.143a27.117,27.117,0,0,1,21.081-39.137A27.105,27.105,0,0,1,191.1,195.852Zm0,0" transform="translate(-107.24 -126.968)" fill="#e3e7f2"/>
    <path id="Path_581" data-name="Path 581" d="M187.2,411.59h22.936a2.085,2.085,0,0,1,2.084,2.084v4.171a2.085,2.085,0,0,1-2.084,2.084H187.2a2.085,2.085,0,0,1-2.085-2.084v-4.171A2.085,2.085,0,0,1,187.2,411.59Zm0,0" transform="translate(-138.785 -309.344)" fill="#a4c2f7"/>
    <path id="Path_582" data-name="Path 582" d="M229.113,445.16v8.34c0,1.982-2.94,3.628-5.213,4.066-2.273-.438-5.213-2.084-5.213-4.066v-8.34Zm0,0" transform="translate(-164.018 -334.574)" fill="#d4e1f4"/>
    <path id="Path_583" data-name="Path 583" d="M157.744,289.384h-2.085a2.085,2.085,0,0,0-2.085,2.084v4.171a2.085,2.085,0,0,0,2.085,2.084h6.255a2.085,2.085,0,0,1-2.085-2.084v-4.171a2.085,2.085,0,0,1,2.085-2.084H164c-.188-8.487-8.174-14.179-11.7-21.143a27.3,27.3,0,0,1-2.9-12.219,26.932,26.932,0,0,1,.957-7.03,20.819,20.819,0,0,1-7.021,3.917,26.827,26.827,0,0,0,2.711,15.332c3.52,6.963,11.5,12.656,11.693,21.143Zm0,0" transform="translate(-107.245 -187.138)" fill="#fff"/>
    <path id="Path_584" data-name="Path 584" d="M223.9,457.567a6.475,6.475,0,0,0,1.042.1h4.171a5.79,5.79,0,0,0,1.026-.109c-2.277-.442-5.2-2.085-5.2-4.062v-8.34h-6.255v8.34C218.688,455.482,221.628,457.129,223.9,457.567Zm0,0" transform="translate(-164.018 -334.575)" fill="#fff"/>
    <path id="Path_585" data-name="Path 585" d="M29.659,142.793a20.835,20.835,0,0,0,3.128-.26,20.822,20.822,0,0,1,0-41.181,20.84,20.84,0,1,0-3.128,41.441Zm0,0" transform="translate(-6.266 -75.994)" fill="#fff"/>
    <path id="Path_586" data-name="Path 586" d="M23.393,96.808A18.855,18.855,0,0,0,5.326,110.569a19.558,19.558,0,0,0-.7,5H.457a23.626,23.626,0,0,1,.851-6.119A22.986,22.986,0,0,1,23.393,92.637Zm0,0" transform="translate(0 -69.624)" fill="#fff"/>
    <g id="Group_240" data-name="Group 240" transform="translate(0.457 0)">
      <path id="Path_587" data-name="Path 587" d="M67.878,355.982a2.083,2.083,0,0,0,1.81,1.042,2.045,2.045,0,0,0,1.042-.276l14.6-8.339a2.085,2.085,0,0,0-2.068-3.62l-14.6,8.34a2.085,2.085,0,0,0-.784,2.853Zm0,0" transform="translate(-50.922 -258.949)" fill="#7975fc"/>
      <path id="Path_588" data-name="Path 588" d="M60.777,310.918l-16.6,2.667a2.085,2.085,0,0,0,.334,4.144,2.117,2.117,0,0,0,.333-.027l16.6-2.668a2.085,2.085,0,0,0-.663-4.115Zm0,0" transform="translate(-32.003 -233.665)" fill="#7975fc"/>
      <path id="Path_589" data-name="Path 589" d="M361.653,345.468a2.085,2.085,0,0,0,.775,2.844l14.6,8.34a2.062,2.062,0,0,0,1.034.283,2.085,2.085,0,0,0,1.042-3.9l-14.6-8.34a2.086,2.086,0,0,0-2.852.768Zm0,0" transform="translate(-271.719 -258.861)" fill="#7975fc"/>
      <path id="Path_590" data-name="Path 590" d="M396.65,317.7a2.134,2.134,0,0,0,.334.027,2.085,2.085,0,0,0,.33-4.143l-16.6-2.667a2.085,2.085,0,0,0-.663,4.115Zm0,0" transform="translate(-284.474 -233.665)" fill="#7975fc"/>
      <path id="Path_591" data-name="Path 591" d="M392.821,138.721a2.084,2.084,0,0,1-1.472-3.544,2.12,2.12,0,0,1,2.944,0,2.085,2.085,0,0,0,2.946-2.951,5.974,5.974,0,0,0-2.334-1.428v-2.5a2.085,2.085,0,1,0-4.17,0v2.5a6,6,0,0,0-2.336,1.416,6.256,6.256,0,0,0,4.421,10.678,2.085,2.085,0,0,1,1.472,3.545,2.121,2.121,0,0,1-2.944,0,2.085,2.085,0,0,0-2.947,2.95,6.208,6.208,0,0,0,2.334,1.459v2.471a2.085,2.085,0,1,0,4.17,0V150.85a6.245,6.245,0,0,0-2.084-12.129Zm0,0" transform="translate(-290.652 -94.858)" fill="#7975fc"/>
      <path id="Path_592" data-name="Path 592" d="M102.627,23.013A22.673,22.673,0,0,0,90.1,26.753,27.931,27.931,0,0,0,89.8,23a27.106,27.106,0,0,0-53.586,0,27.875,27.875,0,0,0-.3,3.739,22.67,22.67,0,0,0-12.521-3.726,23,23,0,0,0-8.936,1.81A2.042,2.042,0,0,0,13.4,27.654a2.155,2.155,0,0,0,2.688,1.007,18.821,18.821,0,0,1,7.31-1.478A18.51,18.51,0,0,1,36.45,32.515a27.064,27.064,0,0,0,6.761,13.136c-.286.273-.588.523-.866.811A30.187,30.187,0,0,0,34.58,60.99a18.453,18.453,0,0,1-11.187,3.724A18.789,18.789,0,0,1,4.628,45.949a19.558,19.558,0,0,1,.7-5,13.861,13.861,0,0,1,.59-1.777A2.2,2.2,0,0,0,4.824,36.51,2.014,2.014,0,0,0,2.03,37.657a17.864,17.864,0,0,0-.721,2.177,23.639,23.639,0,0,0-.851,6.115A22.964,22.964,0,0,0,23.394,68.884a22.633,22.633,0,0,0,10.493-2.552c-.021.469-.067.93-.067,1.4A31.02,31.02,0,0,0,36.93,81.287a48.346,48.346,0,0,0,5.081,7.689c2.767,3.663,5.388,7.157,6.164,11.216a4.171,4.171,0,0,0-3.931,4.139V108.5a4.17,4.17,0,0,0,4.171,4.17h4.17v6.255c0,3.753,5.021,6.255,8.34,6.255H65.1c3.319,0,8.339-2.5,8.339-6.255v-6.255h4.171a4.17,4.17,0,0,0,4.17-4.17v-4.171a4.168,4.168,0,0,0-3.93-4.144c.775-4.062,3.4-7.554,6.164-11.216a48.419,48.419,0,0,0,5.081-7.69A31.018,31.018,0,0,0,92.2,67.734c0-.472-.046-.933-.067-1.4a22.63,22.63,0,0,0,10.493,2.552,22.936,22.936,0,1,0,0-45.872ZM40.074,27.183a23.944,23.944,0,0,1,.267-3.545,22.936,22.936,0,0,1,45.336,0,23.815,23.815,0,0,1,.269,3.545A22.89,22.89,0,0,1,79.6,42.963a28.363,28.363,0,0,0-9.945-4.541A8.3,8.3,0,0,0,63.01,25.1a4.17,4.17,0,1,1,4.17-4.171,2.085,2.085,0,1,0,4.171,0A8.339,8.339,0,0,0,65.1,12.884V10.5a2.085,2.085,0,0,0-4.171,0v2.381A8.323,8.323,0,0,0,63.01,29.268a4.17,4.17,0,1,1-4.171,4.171,2.085,2.085,0,1,0-4.17,0,8.259,8.259,0,0,0,1.693,4.983,28.374,28.374,0,0,0-9.946,4.541,22.889,22.889,0,0,1-6.342-15.779Zm29.191,91.743c-.089.673-2.46,2.085-4.17,2.085H60.925c-1.71,0-4.08-1.418-4.17-2.085v-6.255h12.51ZM71.35,108.5H48.415v-4.171H77.606V108.5ZM63.01,83.48H65.1v16.681H60.925V83.48Zm22.333-4.03a44.812,44.812,0,0,1-4.661,7.005c-3.108,4.114-6.311,8.351-7.078,13.706h-4.34V83.48h4.17a6.443,6.443,0,0,0,5.147-2.412,7.825,7.825,0,0,0,1.63-4.885,6.843,6.843,0,0,0-6.777-7.3c-5.671,0-7.76,5.838-8.232,10.426H60.825c-.472-4.588-2.561-10.426-8.232-10.426A6.441,6.441,0,0,0,47.447,71.3a7.818,7.818,0,0,0-1.639,4.886,6.843,6.843,0,0,0,6.776,7.3h4.171v16.681h-4.34c-.767-5.355-3.961-9.591-7.079-13.7a44.893,44.893,0,0,1-4.66-7.007,26.852,26.852,0,0,1-2.688-11.716,26.275,26.275,0,0,1,7.353-18.378,24.394,24.394,0,0,1,35.337,0,26.275,26.275,0,0,1,7.353,18.378A26.852,26.852,0,0,1,85.343,79.45Zm-15.9-.14c.336-2.472,1.291-6.256,3.992-6.256,2.534,0,2.606,2.809,2.606,3.129a3.7,3.7,0,0,1-.715,2.28,2.268,2.268,0,0,1-1.891.847Zm-12.859,0h-4c-2.533,0-2.606-2.809-2.606-3.128a3.715,3.715,0,0,1,.715-2.281,2.271,2.271,0,0,1,1.891-.847c2.73,0,3.674,3.785,4,6.256Zm46.043-14.6A18.455,18.455,0,0,1,91.44,60.987a30.2,30.2,0,0,0-7.765-14.53c-.278-.287-.579-.538-.866-.81a27.066,27.066,0,0,0,6.76-13.136,18.51,18.51,0,0,1,13.057-5.327,18.766,18.766,0,0,1,0,37.531Zm0,0" transform="translate(-0.458 0)" fill="#7975fc"/>
      <path id="Path_593" data-name="Path 593" d="M73.871,126.211a2.085,2.085,0,0,0-2.085,2.085v2.5a6,6,0,0,0-2.335,1.416,6.256,6.256,0,0,0,4.42,10.678,2.085,2.085,0,0,1,1.472,3.545,2.121,2.121,0,0,1-2.944,0,2.088,2.088,0,1,0-2.946,2.961,6.212,6.212,0,0,0,2.333,1.459v2.46a2.085,2.085,0,0,0,4.171,0V150.85a6.245,6.245,0,0,0-2.085-12.129,2.084,2.084,0,0,1-1.472-3.544,2.12,2.12,0,0,1,2.944,0,2.085,2.085,0,0,0,2.946-2.951,5.977,5.977,0,0,0-2.333-1.428v-2.5a2.085,2.085,0,0,0-2.085-2.085Zm0,0" transform="translate(-50.935 -94.858)" fill="#7975fc"/>
      <path id="Path_594" data-name="Path 594" d="M24.8,121.667a2.42,2.42,0,0,0,1.51.481,1.969,1.969,0,0,0,1.359-.6,2.157,2.157,0,0,0,.568-1.366l-.04-.392a1.827,1.827,0,0,0-.115-.416,1.493,1.493,0,0,0-.154-.368,2.986,2.986,0,0,0-.238-.345,1.99,1.99,0,0,0-1.434-.7,2.248,2.248,0,0,0-2.209,2.273,1.814,1.814,0,0,0,.236.793,2.053,2.053,0,0,0,.517.634Zm0,0" transform="translate(-18.184 -88.663)" fill="#7975fc"/>
    </g>
  </g>
</svg>
