<svg xmlns="http://www.w3.org/2000/svg" width="116.037" height="116.037" viewBox="0 0 116.037 116.037">
  <g id="seo" transform="translate(0)">
    <path id="Path_518" data-name="Path 518" d="M12.4,366.934H89.76a3.868,3.868,0,0,1,3.868,3.868v23.207a3.868,3.868,0,0,1-3.868,3.868H12.4a3.868,3.868,0,0,1-3.868-3.868V370.8a3.868,3.868,0,0,1,3.868-3.868Zm0,0" transform="translate(-6.601 -283.774)" fill="#d4e1f4"/>
    <path id="Path_519" data-name="Path 519" d="M12.4,187.734H89.76a3.868,3.868,0,0,1,3.868,3.868v23.207a3.868,3.868,0,0,1-3.868,3.868H12.4a3.868,3.868,0,0,1-3.868-3.868V191.6a3.868,3.868,0,0,1,3.868-3.868Zm0,0" transform="translate(-6.601 -145.187)" fill="#d4e1f4"/>
    <path id="Path_520" data-name="Path 520" d="M12.4,366.934H82.025a3.868,3.868,0,0,1,3.868,3.868v23.207a3.868,3.868,0,0,1-3.868,3.868H12.4a3.868,3.868,0,0,1-3.868-3.868V370.8a3.868,3.868,0,0,1,3.868-3.868Zm0,0" transform="translate(-6.601 -283.774)" fill="#e3e7f2"/>
    <path id="Path_521" data-name="Path 521" d="M12.4,187.734H82.025a3.868,3.868,0,0,1,3.868,3.868v23.207a3.868,3.868,0,0,1-3.868,3.868H12.4a3.868,3.868,0,0,1-3.868-3.868V191.6a3.868,3.868,0,0,1,3.868-3.868Zm0,0" transform="translate(-6.601 -145.187)" fill="#e3e7f2"/>
    <path id="Path_522" data-name="Path 522" d="M131.867,8.535h77.357a3.868,3.868,0,0,1,3.868,3.868V35.61a3.868,3.868,0,0,1-3.868,3.868H131.867A3.868,3.868,0,0,1,128,35.61V12.4A3.868,3.868,0,0,1,131.867,8.535Zm0,0" transform="translate(-98.991 -6.601)" fill="#d4e1f4"/>
    <path id="Path_523" data-name="Path 523" d="M131.867,8.535h69.622a3.868,3.868,0,0,1,3.868,3.868V35.61a3.868,3.868,0,0,1-3.868,3.868H131.867A3.868,3.868,0,0,1,128,35.61V12.4A3.868,3.868,0,0,1,131.867,8.535Zm0,0" transform="translate(-98.991 -6.601)" fill="#e3e7f2"/>
    <path id="Path_524" data-name="Path 524" d="M282.736,42.668l3.473,4.531,6.2,1.379-4.049,4.179.356,5.383-5.976-1.948-5.976,1.948.355-5.383-4.049-4.179,6.2-1.379Zm0,0" transform="translate(-211.18 -32.998)" fill="#d4e1f4"/>
    <path id="Path_525" data-name="Path 525" d="M44.6,221.867H56.2a1.934,1.934,0,0,1,1.934,1.933v11.6a1.934,1.934,0,0,1-1.934,1.933H44.6a1.934,1.934,0,0,1-1.933-1.933V223.8A1.934,1.934,0,0,1,44.6,221.867Zm0,0" transform="translate(-32.998 -171.584)" fill="#f4f4f4"/>
    <path id="Path_526" data-name="Path 526" d="M44.6,401.066H79.413A1.934,1.934,0,0,1,81.346,403v3.868a1.934,1.934,0,0,1-1.933,1.933H44.6a1.934,1.934,0,0,1-1.933-1.933V403A1.934,1.934,0,0,1,44.6,401.066Zm0,0" transform="translate(-32.998 -310.171)" fill="#f4f4f4"/>
    <path id="Path_527" data-name="Path 527" d="M268.738,408.8H249.4a1.934,1.934,0,0,1-1.934-1.934V403a1.935,1.935,0,0,1,1.934-1.934h19.339A1.934,1.934,0,0,1,270.673,403v3.868A1.934,1.934,0,0,1,268.738,408.8Zm0,0" transform="translate(-191.381 -310.171)" fill="#f4f4f4"/>
    <path id="Path_528" data-name="Path 528" d="M131.867,39.478h5.8A3.868,3.868,0,0,1,133.8,35.61V12.4a3.868,3.868,0,0,1,3.868-3.868h-5.8A3.868,3.868,0,0,0,128,12.4V35.61A3.868,3.868,0,0,0,131.867,39.478Zm0,0" transform="translate(-98.991 -6.601)" fill="#fff"/>
    <path id="Path_529" data-name="Path 529" d="M12.4,397.877h5.8a3.868,3.868,0,0,1-3.868-3.868V370.8a3.868,3.868,0,0,1,3.868-3.868H12.4A3.868,3.868,0,0,0,8.535,370.8v23.207A3.868,3.868,0,0,0,12.4,397.877Zm0,0" transform="translate(-6.601 -283.774)" fill="#fff"/>
    <path id="Path_530" data-name="Path 530" d="M12.4,218.678h5.8a3.868,3.868,0,0,1-3.868-3.868V191.6a3.868,3.868,0,0,1,3.868-3.868H12.4A3.868,3.868,0,0,0,8.535,191.6V214.81A3.868,3.868,0,0,0,12.4,218.678Zm0,0" transform="translate(-6.601 -145.188)" fill="#fff"/>
    <path id="Path_531" data-name="Path 531" d="M3.868,204.8v23.391a1.909,1.909,0,0,0,.227.743A1.962,1.962,0,0,0,5.8,229.942v3.868a5.841,5.841,0,0,1-5.09-3.019,5.746,5.746,0,0,1-.684-2.242L0,227.977V204.8Zm0,0" transform="translate(0 -158.386)" fill="#fff"/>
    <g id="Group_233" data-name="Group 233" transform="translate(0 0)">
      <path id="Path_532" data-name="Path 532" d="M5.8,393.21H83.16a5.8,5.8,0,0,0,5.8-5.8V364.2a5.8,5.8,0,0,0-5.8-5.8H5.8A5.8,5.8,0,0,0,0,364.2v23.207a5.8,5.8,0,0,0,5.8,5.8ZM3.868,364.2A1.935,1.935,0,0,1,5.8,362.267H83.16a1.934,1.934,0,0,1,1.933,1.934v23.207a1.934,1.934,0,0,1-1.933,1.934H5.8a1.934,1.934,0,0,1-1.934-1.934Zm0,0" transform="translate(0 -277.173)" fill="#7975fc"/>
      <path id="Path_533" data-name="Path 533" d="M.712,210.992A5.841,5.841,0,0,0,5.8,214.01H83.16a5.8,5.8,0,0,0,5.8-5.8V185a5.8,5.8,0,0,0-5.8-5.8H5.8A5.8,5.8,0,0,0,0,185v7.736a1.934,1.934,0,0,0,3.868,0V185A1.934,1.934,0,0,1,5.8,183.067H83.16A1.934,1.934,0,0,1,85.093,185v23.207a1.934,1.934,0,0,1-1.933,1.934H5.8a1.961,1.961,0,0,1-1.7-1.007,2.04,2.04,0,0,1-.236-.927,1.934,1.934,0,0,0-3.868,0,5.923,5.923,0,0,0,.712,2.783Zm0,0" transform="translate(0 -138.587)" fill="#7975fc"/>
      <path id="Path_534" data-name="Path 534" d="M1.971,268.4a2.037,2.037,0,0,0,1.373-.561,1.962,1.962,0,0,0,0-2.746l-.29-.232a1.471,1.471,0,0,0-.348-.174,1.244,1.244,0,0,0-.349-.116,2.818,2.818,0,0,0-.386-.038A2.029,2.029,0,0,0,.6,265.1a2,2,0,0,0,0,2.746,1.987,1.987,0,0,0,.637.406,1.946,1.946,0,0,0,.736.155Zm0,0" transform="translate(-0.036 -204.583)" fill="#7975fc"/>
      <path id="Path_535" data-name="Path 535" d="M202.624,0H125.267a5.8,5.8,0,0,0-5.8,5.8V29.009a5.8,5.8,0,0,0,5.8,5.8h77.357a5.8,5.8,0,0,0,5.8-5.8V5.8a5.8,5.8,0,0,0-5.8-5.8Zm1.934,29.009a1.935,1.935,0,0,1-1.934,1.934H125.267a1.934,1.934,0,0,1-1.933-1.934V5.8a1.934,1.934,0,0,1,1.933-1.934h77.357A1.934,1.934,0,0,1,204.558,5.8Zm0,0" transform="translate(-92.39 0)" fill="#7975fc"/>
      <path id="Path_536" data-name="Path 536" d="M432.535,204.342a1.934,1.934,0,0,0,1.934-1.933V185.8l.567.567a1.934,1.934,0,0,0,2.735-2.735l-3.868-3.868a1.941,1.941,0,0,0-2.739,0l-3.868,3.868a1.934,1.934,0,0,0,2.735,2.735l.571-.567v16.605A1.934,1.934,0,0,0,432.535,204.342Zm0,0" transform="translate(-330.037 -138.588)" fill="#7975fc"/>
      <path id="Path_537" data-name="Path 537" d="M40.014,25.149a1.934,1.934,0,0,0,1.933-1.934V6.61l.567.567a1.934,1.934,0,0,0,2.735-2.735L41.381.574a1.939,1.939,0,0,0-2.736,0L34.777,4.443a1.934,1.934,0,0,0,2.736,2.733l.567-.567v16.6a1.934,1.934,0,0,0,1.934,1.934Zm0,0" transform="translate(-26.476 -0.007)" fill="#7975fc"/>
      <path id="Path_538" data-name="Path 538" d="M286.238,40.228,280.729,39l-3.045-3.973a2,2,0,0,0-3.071,0L271.569,39l-5.51,1.225a1.934,1.934,0,0,0-.967,3.232l3.45,3.564-.3,4.526a1.933,1.933,0,0,0,2.529,1.966l5.375-1.754,5.376,1.754a1.934,1.934,0,0,0,2.529-1.966l-.3-4.526,3.45-3.564a1.934,1.934,0,0,0-.967-3.232Zm-5.858,4.721a1.932,1.932,0,0,0-.541,1.474l.168,2.529-3.259-1.061a1.939,1.939,0,0,0-1.2,0l-3.259,1.061.168-2.529a1.936,1.936,0,0,0-.542-1.474l-1.644-1.7,2.821-.629a1.927,1.927,0,0,0,1.12-.712l1.934-2.527,1.933,2.527a1.933,1.933,0,0,0,1.116.712l2.821.629Zm0,0" transform="translate(-204.593 -26.536)" fill="#7975fc"/>
      <path id="Path_539" data-name="Path 539" d="M176.809,34.133H155.535a1.934,1.934,0,0,0,0,3.868h21.273a1.934,1.934,0,1,0,0-3.868Zm0,0" transform="translate(-118.79 -26.397)" fill="#7975fc"/>
      <path id="Path_540" data-name="Path 540" d="M176.809,102.4H155.535a1.934,1.934,0,0,0,0,3.868h21.273a1.934,1.934,0,1,0,0-3.868Zm0,0" transform="translate(-118.79 -79.191)" fill="#7975fc"/>
      <path id="Path_541" data-name="Path 541" d="M155.535,72.133h15.471a1.934,1.934,0,1,0,0-3.868H155.535a1.934,1.934,0,0,0,0,3.868Zm0,0" transform="translate(-118.79 -52.794)" fill="#7975fc"/>
      <path id="Path_542" data-name="Path 542" d="M390.141,34.133H368.867a1.934,1.934,0,0,0,0,3.868h21.273a1.934,1.934,0,1,0,0-3.868Zm0,0" transform="translate(-283.774 -26.397)" fill="#7975fc"/>
      <path id="Path_543" data-name="Path 543" d="M390.141,102.4H368.867a1.934,1.934,0,0,0,0,3.868h21.273a1.934,1.934,0,1,0,0-3.868Zm0,0" transform="translate(-283.774 -79.191)" fill="#7975fc"/>
      <path id="Path_544" data-name="Path 544" d="M409.94,68.266H394.469a1.934,1.934,0,0,0,0,3.868H409.94a1.934,1.934,0,1,0,0-3.868Zm0,0" transform="translate(-303.573 -52.794)" fill="#7975fc"/>
      <path id="Path_545" data-name="Path 545" d="M49.6,232.672a3.868,3.868,0,0,0,3.868-3.868V217.2a3.868,3.868,0,0,0-3.868-3.868H38a3.868,3.868,0,0,0-3.868,3.868v11.6A3.868,3.868,0,0,0,38,232.672ZM38,217.2H49.6v11.6H38Zm0,0" transform="translate(-26.397 -164.984)" fill="#7975fc"/>
      <path id="Path_546" data-name="Path 546" d="M38,404.138H72.812a3.868,3.868,0,0,0,3.868-3.868V396.4a3.868,3.868,0,0,0-3.868-3.868H38a3.868,3.868,0,0,0-3.868,3.868v3.868A3.868,3.868,0,0,0,38,404.138Zm0-7.736H72.812v3.868H38Zm0,0" transform="translate(-26.397 -303.573)" fill="#7975fc"/>
      <path id="Path_547" data-name="Path 547" d="M242.8,404.138h19.339a3.868,3.868,0,0,0,3.868-3.868V396.4a3.868,3.868,0,0,0-3.868-3.868H242.8a3.868,3.868,0,0,0-3.868,3.868v3.868A3.868,3.868,0,0,0,242.8,404.138Zm0-7.736h19.339v3.868H242.8Zm0,0" transform="translate(-184.783 -303.573)" fill="#7975fc"/>
      <path id="Path_548" data-name="Path 548" d="M138.468,217.2h46.415a1.934,1.934,0,0,0,0-3.868H138.468a1.934,1.934,0,0,0,0,3.868Zm0,0" transform="translate(-105.591 -164.983)" fill="#7975fc"/>
      <path id="Path_549" data-name="Path 549" d="M138.468,251.333h46.415a1.934,1.934,0,0,0,0-3.869H138.468a1.934,1.934,0,0,0,0,3.869Zm0,0" transform="translate(-105.591 -191.381)" fill="#7975fc"/>
      <path id="Path_550" data-name="Path 550" d="M138.468,285.469h46.415a1.934,1.934,0,0,0,0-3.868H138.468a1.934,1.934,0,0,0,0,3.868Zm0,0" transform="translate(-105.591 -217.781)" fill="#7975fc"/>
      <path id="Path_551" data-name="Path 551" d="M36.067,464.668H74.745a1.934,1.934,0,1,0,0-3.868H36.067a1.934,1.934,0,1,0,0,3.868Zm0,0" transform="translate(-26.397 -356.367)" fill="#7975fc"/>
      <path id="Path_552" data-name="Path 552" d="M240.867,464.668h23.208a1.934,1.934,0,0,0,0-3.868H240.867a1.934,1.934,0,0,0,0,3.868Zm0,0" transform="translate(-184.783 -356.367)" fill="#7975fc"/>
    </g>
  </g>
</svg>
