<svg xmlns="http://www.w3.org/2000/svg" width="131.516" height="131.475" viewBox="0 0 131.516 131.475">
  <g id="startup" transform="translate(0 -0.079)">
    <g id="Group_230" data-name="Group 230" transform="translate(2.192 2.231)">
      <g id="Group_227" data-name="Group 227" transform="translate(0 88.08)">
        <path id="Path_495" data-name="Path 495" d="M37.077,389.389a16.505,16.505,0,0,0-5.793-4.852c.057-.575.088-1.157.088-1.746A17.511,17.511,0,0,0,17.152,365.6a13.194,13.194,0,0,0,.246-2.512,13.145,13.145,0,0,0-9.864-12.72v39.05Z" transform="translate(-7.535 -350.366)" fill="#a4c2f7"/>
        <path id="Path_496" data-name="Path 496" d="M387.815,389.389a16.5,16.5,0,0,1,5.793-4.852c-.057-.575-.088-1.157-.088-1.746A17.511,17.511,0,0,1,407.739,365.6a13.113,13.113,0,0,1,9.617-15.232v39.05Z" transform="translate(-290.135 -350.366)" fill="#a4c2f7"/>
      </g>
      <rect id="Rectangle_29" data-name="Rectangle 29" width="35.07" height="56.99" transform="translate(46.03 28.495)" fill="#d4e1f4"/>
      <rect id="Rectangle_30" data-name="Rectangle 30" width="28.495" height="56.99" transform="translate(46.03 28.495)" fill="#f5f5f5"/>
      <path id="Path_497" data-name="Path 497" d="M221.586,35.954h-35.07a17.694,17.694,0,0,1,.263-5.085.2.2,0,0,0,.022-.11c.965-5.326,4.318-14.006,15.475-22.073.57-.395,1.162-.811,1.776-1.228C223.778,20.611,221.586,35.954,221.586,35.954Z" transform="translate(-140.486 -7.459)" fill="#a4c2f7"/>
      <path id="Path_498" data-name="Path 498" d="M215.337,39.505H186.82a23.073,23.073,0,0,1,.2-5.085.2.2,0,0,0,.022-.11c.964-5.326,4.318-14.006,15.475-22.073C217,25.1,215.337,39.505,215.337,39.505Z" transform="translate(-140.724 -11.01)" fill="#e3e7f2"/>
      <rect id="Rectangle_31" data-name="Rectangle 31" width="35.07" height="13.151" transform="translate(46.03 85.484)" fill="#a4c2f7"/>
      <g id="Group_228" data-name="Group 228" transform="translate(30.687 46.03)">
        <rect id="Rectangle_32" data-name="Rectangle 32" width="28.495" height="13.151" transform="translate(15.343 39.454)" fill="#e3e7f2"/>
        <path id="Path_499" data-name="Path 499" d="M142.345,246.393l-14.259,16.3A4.384,4.384,0,0,0,127,265.575v26.466a2.192,2.192,0,0,0,3.618,1.664l11.725-10.05Z" transform="translate(-127.002 -231.05)" fill="#e3e7f2"/>
        <path id="Path_500" data-name="Path 500" d="M323.269,246.393l14.259,16.3a4.384,4.384,0,0,1,1.085,2.887v26.466a2.192,2.192,0,0,1-3.618,1.664l-11.725-10.05Z" transform="translate(-272.855 -231.05)" fill="#e3e7f2"/>
        <circle id="Ellipse_12" data-name="Ellipse 12" cx="8.768" cy="8.768" r="8.768" transform="translate(24.111)" fill="#e3e7f2"/>
      </g>
      <path id="Path_501" data-name="Path 501" d="M223.881,391.46l-8.768,10.96H199.77L191,391.46Z" transform="translate(-143.876 -292.824)" fill="#d4e1f4"/>
      <path id="Path_502" data-name="Path 502" d="M230.925,434.127a3.709,3.709,0,0,1,2.268,6.2l-8.371,9.476a2.192,2.192,0,0,1-3.285,0l-8.371-9.476a3.709,3.709,0,0,1,2.269-6.2h15.49Z" transform="translate(-159.615 -324.532)" fill="#e3e7f2"/>
      <g id="Group_229" data-name="Group 229" transform="translate(0 0.044)">
        <path id="Path_503" data-name="Path 503" d="M212.721,402.59h.073l-8.767-10.959h-1.1l-3.251,2.786,6.538,8.173h-.073a3.709,3.709,0,0,0-2.269,6.2l8.371,9.476a2.192,2.192,0,0,0,3.285,0l1.645-1.863-6.726-7.614a3.709,3.709,0,0,1,2.269-6.2Z" transform="translate(-150.325 -292.995)" fill="#fff"/>
        <path id="Path_504" data-name="Path 504" d="M14.112,354.628a13.141,13.141,0,0,0-6.576-4.092v39.05l6.576-.006Z" transform="translate(-7.536 -262.456)" fill="#fff"/>
        <path id="Path_505" data-name="Path 505" d="M130.621,116.316l2.957-2.535v-25.6a4.384,4.384,0,0,1,1.085-2.887L148.922,69V36.126a17.692,17.692,0,0,1,.263-5.085.2.2,0,0,0,.022-.11c.919-5.076,4.024-13.2,13.967-20.929-1.025-.8-2.118-1.587-3.293-2.371-.614.416-1.205.833-1.775,1.228C146.949,16.925,143.6,25.6,142.631,30.931a.2.2,0,0,1-.022.11,17.693,17.693,0,0,0-.263,5.085V69L128.088,85.3A4.384,4.384,0,0,0,127,88.187v26.466a2.192,2.192,0,0,0,3.618,1.664Z" transform="translate(-96.316 -7.631)" fill="#fff"/>
      </g>
    </g>
    <g id="Group_232" data-name="Group 232" transform="translate(0 0.079)">
      <path id="Path_506" data-name="Path 506" d="M183.586,119.393v56.99H179.2v-56.99Z" transform="translate(-133.171 -88.746)" fill="#fff"/>
      <g id="Group_231" data-name="Group 231" transform="translate(0 0)">
        <path id="Path_507" data-name="Path 507" d="M380.389,382.724a2.192,2.192,0,0,0,3.5,2.643,14.393,14.393,0,0,1,5.019-4.211c.013-.006.019-.018.032-.025a2.151,2.151,0,0,0,.406-.315,2.256,2.256,0,0,0,.263-.218q.21-.361.4-.731a2.257,2.257,0,0,0,.043-.324,2.144,2.144,0,0,0,.053-.526c0-.013.005-.025,0-.039-.049-.5-.077-1.015-.077-1.531a15.321,15.321,0,0,1,12.438-15.039h.006a2.086,2.086,0,0,0,.36-.148,2.266,2.266,0,0,0,.443-.182,2.134,2.134,0,0,0,.293-.291,2.2,2.2,0,0,0,.3-.3,2.223,2.223,0,0,0,.172-.4,2.125,2.125,0,0,0,.159-.372,2.264,2.264,0,0,0,.005-.44,2.076,2.076,0,0,0,0-.428v-.005a11.114,11.114,0,0,1-.207-2.1,10.948,10.948,0,0,1,8.22-10.6,2.192,2.192,0,0,0-1.1-4.245,15.332,15.332,0,0,0-11.507,14.844c0,.282.026.57.042.856a19.709,19.709,0,0,0-14.016,18.849c0,.175.021.345.026.519A18.964,18.964,0,0,0,380.389,382.724Z" transform="translate(-282.356 -254.79)" fill="#7975fc"/>
        <path id="Path_508" data-name="Path 508" d="M464,451.062a16.084,16.084,0,0,0-13.173,13.08,2.193,2.193,0,0,0,1.822,2.509,2.254,2.254,0,0,0,.346.027,2.193,2.193,0,0,0,2.163-1.848,11.753,11.753,0,0,1,9.5-9.432,2.192,2.192,0,1,0-.66-4.335Z" transform="translate(-335.004 -335.202)" fill="#7975fc"/>
        <path id="Path_509" data-name="Path 509" d="M1.645,347.145a10.949,10.949,0,0,1,8.22,10.6,11.116,11.116,0,0,1-.207,2.1v.005a2.072,2.072,0,0,0,0,.428,2.264,2.264,0,0,0,.005.44,2.158,2.158,0,0,0,.158.372,2.215,2.215,0,0,0,.172.4,2.184,2.184,0,0,0,.3.3,2.136,2.136,0,0,0,.293.291,2.265,2.265,0,0,0,.443.182,2.058,2.058,0,0,0,.36.148H11.4a15.321,15.321,0,0,1,12.438,15.039c0,.517-.028,1.027-.077,1.531,0,.014,0,.025,0,.039a2.144,2.144,0,0,0,.053.526,2.258,2.258,0,0,0,.043.324q.194.37.4.731a2.246,2.246,0,0,0,.263.218,2.136,2.136,0,0,0,.406.315c.012.006.02.018.032.025a14.387,14.387,0,0,1,5.019,4.211,2.192,2.192,0,0,0,3.5-2.643,18.957,18.957,0,0,0-5.288-4.758c0-.174.026-.343.026-.519A19.709,19.709,0,0,0,14.206,358.6c.017-.286.042-.574.042-.856A15.332,15.332,0,0,0,2.741,342.9a2.192,2.192,0,0,0-1.1,4.244Z" transform="translate(0 -254.79)" fill="#7975fc"/>
        <path id="Path_510" data-name="Path 510" d="M2.522,451.062a2.192,2.192,0,0,0-.659,4.335,11.753,11.753,0,0,1,9.5,9.432,2.193,2.193,0,0,0,2.163,1.848,2.259,2.259,0,0,0,.346-.027,2.193,2.193,0,0,0,1.822-2.509A16.085,16.085,0,0,0,2.522,451.062Z" transform="translate(0 -335.202)" fill="#7975fc"/>
        <path id="Path_511" data-name="Path 511" d="M181.319,183.511a2.2,2.2,0,0,0,1.556-3.748l-.329-.263a1.667,1.667,0,0,0-.4-.2,1.383,1.383,0,0,0-.395-.13,3.174,3.174,0,0,0-.438-.044,2.3,2.3,0,0,0-1.556.636,2.161,2.161,0,0,0,.723,3.573A2.192,2.192,0,0,0,181.319,183.511Z" transform="translate(-133.096 -133.136)" fill="#7975fc"/>
        <path id="Path_512" data-name="Path 512" d="M120.745,116.01a2.194,2.194,0,0,0,2.343-.327l13.622-11.676,5.483,6.854a5.82,5.82,0,0,0-1.8,2.369,5.734,5.734,0,0,0,1.263,6.347l11.335,11.335a2.191,2.191,0,0,0,3.1,0l11.335-11.335a5.821,5.821,0,0,0-2.053-9.562l5.564-6.956h.328l14.728,12.624a2.192,2.192,0,0,0,3.618-1.664V81.14a2.192,2.192,0,0,0-.543-1.444l-14.8-16.915V30.85c.212-1.916,1.225-17.284-18.511-30.442h0a2.194,2.194,0,0,0-.793-.326q-.421,0-.842,0a2.192,2.192,0,0,0-.792.326h0C133.586,13.566,134.6,28.933,134.812,30.85v8.644a2.192,2.192,0,1,0,4.384,0V32.918h30.687V85.524H139.2V57.029a2.192,2.192,0,0,0-4.384,0v5.752L120.012,79.7a2.193,2.193,0,0,0-.543,1.444v32.879A2.194,2.194,0,0,0,120.745,116.01Zm43.58.467-9.785,9.785-9.785-9.785a1.44,1.44,0,0,1,1.018-2.458h17.535a1.44,1.44,0,0,1,1.018,2.458Zm-4.263-6.842H146.825l-5.261-6.576h23.759Zm25.164-27.671v27.288l-10.96-9.394V69.439Zm-46.081-53.43c.183-4.087,2.125-14.225,15.4-23.6,13.334,9.417,15.246,19.5,15.406,23.6Zm30.738,70.141H139.2V89.908h30.687Zm-46.03-16.711,10.96-12.525v30.42l-10.96,9.394Z" transform="translate(-88.782 -0.079)" fill="#7975fc"/>
        <path id="Path_513" data-name="Path 513" d="M235.254,190.086a10.96,10.96,0,1,0-10.96,10.96A10.96,10.96,0,0,0,235.254,190.086Zm-17.535,0a6.576,6.576,0,1,1,6.576,6.576A6.576,6.576,0,0,1,217.719,190.086Z" transform="translate(-158.537 -133.135)" fill="#7975fc"/>
      </g>
    </g>
  </g>
</svg>
